<svg xmlns="http://www.w3.org/2000/svg" viewBox="0 0 400 450" width="400" height="450"><defs><pattern id="pt" width="8" height="8" patternUnits="userSpaceOnUse"><path d="M0 8L8 0" stroke="#93afa4" stroke-width="1" opacity=".18"/></pattern><linearGradient id="sh" x1="0" x2="1"><stop offset="0" stop-color="#fff" stop-opacity=".16"/><stop offset=".45" stop-color="#fff" stop-opacity="0"/><stop offset="1" stop-color="#000" stop-opacity=".14"/></linearGradient></defs><rect width="400" height="450" fill="#d7dcd2"/><ellipse cx="200" cy="412" rx="140" ry="13" fill="#000" opacity=".07"/><g><clipPath id="c0"><path d="M150 310L148 410L190 410L200 340L210 410L252 410L250 310Z"/></clipPath><path d="M150 310L148 410L190 410L200 340L210 410L252 410L250 310Z" fill="#f3efe6"/><g clip-path="url(#c0)"><rect width="400" height="450" fill="url(#sh)"/></g><path d="M150 310L148 410L190 410L200 340L210 410L252 410L250 310Z" fill="none" stroke="#9e9b96" stroke-width="2.5" stroke-linejoin="round"/></g><g><clipPath id="c1"><path d="M172 58Q200 84 228 58L290 74L352 168L322 186L286 122L298 340Q200 356 102 340L114 122L78 186L48 168L110 74Z"/></clipPath><path d="M172 58Q200 84 228 58L290 74L352 168L322 186L286 122L298 340Q200 356 102 340L114 122L78 186L48 168L110 74Z" fill="#0f4d34"/><g clip-path="url(#c1)"><rect width="400" height="450" fill="url(#pt)"/><rect x="0" y="314" width="400" height="18" fill="#f2c230"/><rect width="400" height="450" fill="url(#sh)"/></g><path d="M172 58Q200 84 228 58L290 74L352 168L322 186L286 122L298 340Q200 356 102 340L114 122L78 186L48 168L110 74Z" fill="none" stroke="#092d1e" stroke-width="2.5" stroke-linejoin="round"/></g><path d="M200 70V160" stroke="#092d1e" stroke-width="3"/><circle cx="200" cy="92" r="3.2" fill="#f2c230"/><circle cx="200" cy="114" r="3.2" fill="#f2c230"/><circle cx="200" cy="136" r="3.2" fill="#f2c230"/><path d="M172 58Q200 84 228 58" fill="none" stroke="#f2c230" stroke-width="6"/></svg>