<svg xmlns="http://www.w3.org/2000/svg" viewBox="0 0 400 450" width="400" height="450"><defs><linearGradient id="sh" x1="0" x2="1"><stop offset="0" stop-color="#fff" stop-opacity=".16"/><stop offset=".45" stop-color="#fff" stop-opacity="0"/><stop offset="1" stop-color="#000" stop-opacity=".14"/></linearGradient></defs><rect width="400" height="450" fill="#dbd7d2"/><ellipse cx="200" cy="412" rx="140" ry="13" fill="#000" opacity=".07"/><g><clipPath id="c0"><path d="M84 108H322Q330 108 330 116V330H84Z"/></clipPath><path d="M84 108H322Q330 108 330 116V330H84Z" fill="#242427"/><g clip-path="url(#c0)"><rect width="400" height="450" fill="url(#sh)"/></g><path d="M84 108H322Q330 108 330 116V330H84Z" fill="none" stroke="#151517" stroke-width="2.5" stroke-linejoin="round"/></g><g><clipPath id="c1"><path d="M68 140H318Q332 140 332 154V364H82Q68 364 68 350Z"/></clipPath><path d="M68 140H318Q332 140 332 154V364H82Q68 364 68 350Z" fill="#2a2a2e"/><g clip-path="url(#c1)"><rect x="68" y="334" width="264" height="30" fill="#b9bcc2"/><rect x="304" y="140" width="28" height="224" fill="#b9bcc2"/><rect width="400" height="450" fill="url(#sh)"/></g><path d="M68 140H318Q332 140 332 154V364H82Q68 364 68 350Z" fill="none" stroke="#18181b" stroke-width="2.5" stroke-linejoin="round"/></g><g><clipPath id="c2"><path d="M332 140V262L214 140Z"/></clipPath><path d="M332 140V262L214 140Z" fill="#b9bcc2"/><g clip-path="url(#c2)"><rect x="300" y="140" width="40" height="130" fill="#b9bcc2"/><rect width="400" height="450" fill="url(#sh)"/></g><path d="M332 140V262L214 140Z" fill="none" stroke="#6b6d71" stroke-width="2.5" stroke-linejoin="round"/></g><path d="M68 334H332" stroke="#8b8d92" stroke-width="2"/><path d="M68 348H332" stroke="#ced0d4" stroke-width="1.5" stroke-dasharray="6 5"/><path d="M332 140L214 140" stroke="#94969b" stroke-width="3"/></svg>