<svg xmlns="http://www.w3.org/2000/svg" viewBox="0 0 400 450" width="400" height="450"><defs><linearGradient id="sh" x1="0" x2="1"><stop offset="0" stop-color="#fff" stop-opacity=".16"/><stop offset=".45" stop-color="#fff" stop-opacity="0"/><stop offset="1" stop-color="#000" stop-opacity=".14"/></linearGradient></defs><rect width="400" height="450" fill="#d9d8d7"/><ellipse cx="200" cy="412" rx="140" ry="13" fill="#000" opacity=".07"/><g><clipPath id="c0"><path d="M112 84H196L190 382Q152 394 116 382Z"/></clipPath><path d="M112 84H196L190 382Q152 394 116 382Z" fill="#1f2f57"/><g clip-path="url(#c0)"><rect x="0" y="352" width="400" height="30" fill="#2a2a2e"/><rect width="400" height="450" fill="url(#sh)"/></g><path d="M112 84H196L190 382Q152 394 116 382Z" fill="none" stroke="#121b32" stroke-width="2.5" stroke-linejoin="round"/></g><g><clipPath id="c1"><path d="M184 84H286L294 352Q248 368 202 352Z"/></clipPath><path d="M184 84H286L294 352Q248 368 202 352Z" fill="#1c2a4e"/><g clip-path="url(#c1)"><rect x="0" y="322" width="400" height="30" fill="#2a2a2e"/><rect width="400" height="450" fill="url(#sh)"/></g><path d="M184 84H286L294 352Q248 368 202 352Z" fill="none" stroke="#10182d" stroke-width="2.5" stroke-linejoin="round"/></g><rect x="88" y="70" width="224" height="16" rx="8" fill="#8a6a45"/><path d="M122 386v14" stroke="#2a2a2e" stroke-width="2.5"/><path d="M129 386v14" stroke="#2a2a2e" stroke-width="2.5"/><path d="M136 386v14" stroke="#2a2a2e" stroke-width="2.5"/><path d="M143 386v14" stroke="#2a2a2e" stroke-width="2.5"/><path d="M150 386v14" stroke="#2a2a2e" stroke-width="2.5"/><path d="M157 386v14" stroke="#2a2a2e" stroke-width="2.5"/><path d="M164 386v14" stroke="#2a2a2e" stroke-width="2.5"/><path d="M171 386v14" stroke="#2a2a2e" stroke-width="2.5"/><path d="M178 386v14" stroke="#2a2a2e" stroke-width="2.5"/><path d="M185 386v14" stroke="#2a2a2e" stroke-width="2.5"/><path d="M210 356v14" stroke="#2a2a2e" stroke-width="2.5"/><path d="M217 356v14" stroke="#2a2a2e" stroke-width="2.5"/><path d="M224 356v14" stroke="#2a2a2e" stroke-width="2.5"/><path d="M231 356v14" stroke="#2a2a2e" stroke-width="2.5"/><path d="M238 356v14" stroke="#2a2a2e" stroke-width="2.5"/><path d="M245 356v14" stroke="#2a2a2e" stroke-width="2.5"/><path d="M252 356v14" stroke="#2a2a2e" stroke-width="2.5"/><path d="M259 356v14" stroke="#2a2a2e" stroke-width="2.5"/><path d="M266 356v14" stroke="#2a2a2e" stroke-width="2.5"/><path d="M273 356v14" stroke="#2a2a2e" stroke-width="2.5"/><path d="M280 356v14" stroke="#2a2a2e" stroke-width="2.5"/><path d="M287 356v14" stroke="#2a2a2e" stroke-width="2.5"/></svg>