<svg xmlns="http://www.w3.org/2000/svg" viewBox="0 0 400 450" width="400" height="450"><defs><pattern id="pt" width="18" height="18" patternUnits="userSpaceOnUse" patternTransform="rotate(45)"><rect width="6" height="18" fill="#0f4d34" opacity=".55"/></pattern><linearGradient id="sh" x1="0" x2="1"><stop offset="0" stop-color="#fff" stop-opacity=".16"/><stop offset=".45" stop-color="#fff" stop-opacity="0"/><stop offset="1" stop-color="#000" stop-opacity=".14"/></linearGradient></defs><rect width="400" height="450" fill="#eee6d9"/><ellipse cx="200" cy="412" rx="140" ry="13" fill="#000" opacity=".07"/><g><clipPath id="c0"><path d="M168 60Q200 76 232 60L292 78L344 166L314 184L282 132L288 370Q200 384 112 370L118 132L86 184L56 166L108 78Z"/></clipPath><path d="M168 60Q200 76 232 60L292 78L344 166L314 184L282 132L288 370Q200 384 112 370L118 132L86 184L56 166L108 78Z" fill="#c19a6b"/><g clip-path="url(#c0)"><rect width="400" height="450" fill="url(#pt)"/><rect width="400" height="450" fill="url(#sh)"/></g><path d="M168 60Q200 76 232 60L292 78L344 166L314 184L282 132L288 370Q200 384 112 370L118 132L86 184L56 166L108 78Z" fill="none" stroke="#70593e" stroke-width="2.5" stroke-linejoin="round"/></g><rect x="166" y="46" width="68" height="20" rx="6" fill="#c19a6b" stroke="#70593e" stroke-width="2.5"/><path d="M200 98V372" stroke="#70593e" stroke-width="2"/><circle cx="207" cy="130" r="3" fill="#70593e"/><circle cx="207" cy="175" r="3" fill="#70593e"/><circle cx="207" cy="220" r="3" fill="#70593e"/><circle cx="207" cy="265" r="3" fill="#70593e"/><circle cx="207" cy="310" r="3" fill="#70593e"/><rect x="132" y="150" width="40" height="44" rx="4" fill="none" stroke="#70593e" stroke-width="2"/></svg>