<svg xmlns="http://www.w3.org/2000/svg" viewBox="0 0 400 450" width="400" height="450"><defs><pattern id="pt" width="8" height="8" patternUnits="userSpaceOnUse"><path d="M0 8L8 0" stroke="#66676b" stroke-width="1" opacity=".18"/></pattern><linearGradient id="sh" x1="0" x2="1"><stop offset="0" stop-color="#fff" stop-opacity=".16"/><stop offset=".45" stop-color="#fff" stop-opacity="0"/><stop offset="1" stop-color="#000" stop-opacity=".14"/></linearGradient></defs><rect width="400" height="450" fill="#edeae5"/><ellipse cx="200" cy="412" rx="140" ry="13" fill="#000" opacity=".07"/><g><clipPath id="c0"><path d="M160 60L240 60L292 86L282 150Q262 160 268 204L284 384L116 384L132 204Q138 160 118 150L108 86Z"/></clipPath><path d="M160 60L240 60L292 86L282 150Q262 160 268 204L284 384L116 384L132 204Q138 160 118 150L108 86Z" fill="#b9bcc2"/><g clip-path="url(#c0)"><rect width="400" height="450" fill="url(#pt)"/><rect x="0" y="370" width="400" height="14" fill="#f4b393"/><rect width="400" height="450" fill="url(#sh)"/></g><path d="M160 60L240 60L292 86L282 150Q262 160 268 204L284 384L116 384L132 204Q138 160 118 150L108 86Z" fill="none" stroke="#6b6d71" stroke-width="2.5" stroke-linejoin="round"/></g><rect x="164" y="44" width="72" height="22" rx="6" fill="#b9bcc2" stroke="#6b6d71" stroke-width="2.5"/><path d="M200 64V384" stroke="#6b6d71" stroke-width="2.5"/><circle cx="206" cy="100" r="4.5" fill="#f4b393"/><circle cx="206" cy="150" r="4.5" fill="#f4b393"/><circle cx="206" cy="200" r="4.5" fill="#f4b393"/><circle cx="206" cy="250" r="4.5" fill="#f4b393"/><circle cx="206" cy="300" r="4.5" fill="#f4b393"/><path d="M140 230h34M226 230h34M226 150h28" stroke="#6b6d71" stroke-width="4" stroke-linecap="round"/></svg>