<svg xmlns="http://www.w3.org/2000/svg" viewBox="0 0 400 450" width="400" height="450"><defs><pattern id="pt" width="24" height="24" patternUnits="userSpaceOnUse"><g fill="none" stroke="#fff" stroke-width="1.3" opacity=".8"><circle cx="12" cy="12" r="4"/><path d="M12 2v4M12 18v4M2 12h4M18 12h4"/></g></pattern><linearGradient id="sh" x1="0" x2="1"><stop offset="0" stop-color="#fff" stop-opacity=".16"/><stop offset=".45" stop-color="#fff" stop-opacity="0"/><stop offset="1" stop-color="#000" stop-opacity=".14"/></linearGradient></defs><rect width="400" height="450" fill="#eed9d1"/><ellipse cx="200" cy="412" rx="140" ry="13" fill="#000" opacity=".07"/><g><clipPath id="c0"><path d="M172 58Q200 84 228 58L290 74L352 168L322 186L286 122L298 396Q200 412 102 396L114 122L78 186L48 168L110 74Z"/></clipPath><path d="M172 58Q200 84 228 58L290 74L352 168L322 186L286 122L298 396Q200 412 102 396L114 122L78 186L48 168L110 74Z" fill="#c0392b"/><g clip-path="url(#c0)"><rect width="400" height="450" fill="url(#pt)"/><rect x="0" y="370" width="400" height="18" fill="#c19a6b"/><rect width="400" height="450" fill="url(#sh)"/></g><path d="M172 58Q200 84 228 58L290 74L352 168L322 186L286 122L298 396Q200 412 102 396L114 122L78 186L48 168L110 74Z" fill="none" stroke="#6f2119" stroke-width="2.5" stroke-linejoin="round"/></g><path d="M200 70V160" stroke="#6f2119" stroke-width="3"/><circle cx="200" cy="92" r="3.2" fill="#c19a6b"/><circle cx="200" cy="114" r="3.2" fill="#c19a6b"/><circle cx="200" cy="136" r="3.2" fill="#c19a6b"/><path d="M172 58Q200 84 228 58" fill="none" stroke="#c19a6b" stroke-width="6"/></svg>